PathFileType	4	(X/Y/Z)	c:\Git\powerlifing_model_clean\simulations\HC835B\Session1\HC835B_OGR_0007\marker_experimental.trc
DataRate	CameraRate	NumFrames	NumMarkers	Units	OrigDataRate	OrigDataStartFrame	OrigNumFrames
240.000000	240.000000	5	38	mm	240.000000	167	223
Frame#	Time	RPSI			LPSI			RASI			LASI			RTH1			RTH2			RTH3			RTH4			RSK1			RSK2			RSK3			RSK4			RCAL1			RCAL2			RCAL3			RST			RPT			RTN			RFMB			RSMB			RVMB			RFMH			RSMH			RVMH			RPM			LTH1			LTH2			LTH3			LTH4			LSK1			LSK2			LSK3			LSK4			LCAL1			LCAL2			LCAL3			LFMH			LVMH			
		X1	Y1	Z1	X2	Y2	Z2	X3	Y3	Z3	X4	Y4	Z4	X5	Y5	Z5	X6	Y6	Z6	X7	Y7	Z7	X8	Y8	Z8	X9	Y9	Z9	X10	Y10	Z10	X11	Y11	Z11	X12	Y12	Z12	X13	Y13	Z13	X14	Y14	Z14	X15	Y15	Z15	X16	Y16	Z16	X17	Y17	Z17	X18	Y18	Z18	X19	Y19	Z19	X20	Y20	Z20	X21	Y21	Z21	X22	Y22	Z22	X23	Y23	Z23	X24	Y24	Z24	X25	Y25	Z25	X26	Y26	Z26	X27	Y27	Z27	X28	Y28	Z28	X29	Y29	Z29	X30	Y30	Z30	X31	Y31	Z31	X32	Y32	Z32	X33	Y33	Z33	X34	Y34	Z34	X35	Y35	Z35	X36	Y36	Z36	X37	Y37	Z37	X38	Y38	Z38	

168	0.6958333333333333	521.1215820312501	1178.1396484375	-2132.74365234375	407.2545166015626	1170.79833984375	-2138.81103515625	576.5297241210939	1108.160522460938	-2328.821533203125	342.9974060058594	1084.779052734375	-2333.564697265625	657.3915405273439	862.2085571289065	-2356.55126953125	646.5382080078126	878.7398071289065	-2414.38671875	645.3690185546876	800.015808105469	-2412.768798828125	622.6740112304689	814.1560058593752	-2465.219482421875	597.0250854492189	440.9411621093751	-2269.22412109375	597.8144531250001	397.6665954589845	-2313.22900390625	592.0147094726564	384.3831481933595	-2253.951171875	580.8854980468751	344.0898437500001	-2296.634765625	533.1259765625001	290.2572937011719	-2128.980712890625	495.420135498047	261.4422607421876	-2117.7177734375	558.2675170898439	253.5155181884766	-2109.12158203125	486.226287841797	237.7366790771485	-2183.922119140625	584.8970947265626	227.2879791259766	-2162.16455078125	503.4693603515626	221.5522155761719	-2238.56494140625	502.9633789062501	189.5071868896485	-2255.9306640625	553.9168701171876	196.361557006836	-2272.762939453125	589.5006713867189	179.6619567871094	-2184.399169921875	493.0710449218751	134.3919677734375	-2283.7490234375	548.7102661132814	132.4362487792969	-2299.388916015625	602.6650390625001	126.1988830566407	-2242.8603515625	537.4174804687501	98.63627624511722	-2343.3544921875	283.5153808593751	833.7542724609377	-2152.76904296875	295.7226867675782	802.3709716796877	-2203.58349609375	295.5644531250001	748.9176025390626	-2141.351318359375	322.6977844238282	721.4354858398439	-2188.6796875	336.5430297851563	378.3601684570313	-1873.878051757813	327.9995727539063	339.2394409179688	-1910.126953125	339.2698059082032	322.2604980468751	-1864.606323242188	345.2085876464844	283.7941589355469	-1905.344482421875	400.4976806640626	235.708236694336	-1758.71240234375	380.3236694335938	203.5662841796876	-1729.829956054688	437.5811462402345	212.1716766357422	-1739.776733398438	457.2791137695314	63.8703956604004	-1894.989135742188	355.0805358886719	48.07529067993165	-1837.420654296875	
169	0.7	520.8504638671876	1181.416870117188	-2147.497314453125	406.9135131835939	1173.28662109375	-2153.66015625	576.7655029296876	1112.108642578125	-2343.079833984375	344.1144409179688	1087.362182617188	-2348.84814453125	656.8363037109376	864.6805419921877	-2370.658203125	646.0886840820314	881.109313964844	-2428.544677734375	644.7237548828126	802.4228515625002	-2426.809326171875	622.0364379882814	816.5080566406252	-2479.228515625	595.7502441406251	435.8316040039064	-2288.837890625	597.2429809570314	394.0532226562501	-2334.334228515625	590.8529663085939	378.8515014648438	-2275.698486328125	580.3569946289064	339.8428955078126	-2319.96435546875	530.8278198242189	279.4159851074219	-2154.849609375	493.4451904296876	250.2540740966797	-2145.028564453125	555.9841918945314	241.5796966552735	-2136.156982421875	484.9786682128907	229.4259338378907	-2212.323486328125	583.1515502929689	217.5994873046876	-2189.92919921875	501.7082824707032	216.4523925781251	-2269.34521484375	502.2133178710939	183.8892822265625	-2285.973876953125	553.3591308593751	191.2235107421875	-2301.974853515625	588.0153198242189	170.928451538086	-2213.968994140625	492.4335327148439	129.9330291748047	-2316.10693359375	548.2424316406251	128.4501647949219	-2331.288330078125	601.5450439453126	119.7806854248047	-2274.443603515625	537.3093872070314	96.60075378417972	-2376.635498046875	283.3117980957032	837.353210449219	-2164.844482421875	295.8025512695313	805.2829589843752	-2215.1474609375	295.5446166992188	752.7892456054689	-2152.197998046875	322.7874755859376	724.6446533203126	-2199.096435546875	335.2610473632813	383.6220703125001	-1881.199096679688	326.7525329589844	344.4978637695313	-1917.612548828125	337.9018249511719	327.5568237304688	-1872.015625	343.9296875000001	289.1040344238282	-1912.845581054688	398.7933044433595	243.2987976074219	-1767.635375976563	379.1903381347657	211.8714447021485	-1737.563842773438	436.2390441894532	220.7799987792969	-1748.209228515625	455.4068298339845	67.02907562255861	-1899.23291015625	354.5375671386719	52.0725440979004	-1840.269165039063	
170	0.7041666666666666	520.4743652343751	1184.358154296875	-2162.249267578125	406.5447692871095	1175.799438476563	-2168.476318359375	577.0886840820314	1116.1181640625	-2357.72509765625	346.2286071777344	1089.077270507813	-2362.217041015625	656.1441040039064	866.8812255859377	-2384.57470703125	645.5245971679689	883.1846923828127	-2442.514892578125	644.0894165039064	804.4204101562502	-2440.563720703125	621.3461303710939	818.439392089844	-2493.036376953125	594.4456787109376	430.5515441894532	-2308.49755859375	596.7135009765626	390.4273376464845	-2355.373046875	589.6681518554689	373.1133422851563	-2297.380859375	579.9392700195314	335.6535644531251	-2343.15576171875	529.1047973632814	268.6449890136719	-2180.778564453125	491.3575134277345	239.0377349853516	-2172.47900390625	554.1133422851564	230.1538543701172	-2163.345458984375	483.9385375976564	220.7315063476563	-2240.216064453125	580.6097412109376	207.6284790039063	-2217.9267578125	500.8342895507814	210.4586791992188	-2298.29150390625	501.5375976562501	178.4875640869141	-2316.009033203125	552.9245605468751	186.5250549316407	-2331.424560546875	586.6159667968751	162.4463500976563	-2243.793212890625	491.9697265625001	125.8273391723633	-2348.415771484375	547.9867553710939	124.9514846801758	-2363.114990234375	600.6621704101564	113.8168106079102	-2306.06494140625	537.4376220703126	94.97908020019533	-2409.83447265625	283.1712951660157	840.877380371094	-2177.03857421875	295.7919311523438	808.1127929687502	-2226.850830078125	295.6556701660157	756.4519653320314	-2163.07080078125	322.7846679687501	727.7961425781251	-2209.754638671875	333.9476623535157	388.8995666503907	-1888.996704101563	325.5068969726563	349.8059997558594	-1925.526245117188	336.7067565917969	332.6929931640626	-1879.81005859375	342.7845153808594	294.3929443359376	-1920.5009765625	397.2565307617189	250.9257965087891	-1776.482666015625	378.1113586425782	220.3672790527344	-1745.255615234375	435.0590209960939	229.4184112548829	-1756.585815429688	453.302215576172	70.56859588623048	-1903.407104492188	354.4913940429688	56.66859436035158	-1842.453735351563	
171	0.7083333333333334	520.1079101562501	1187.235473632813	-2177.114501953125	406.2065734863282	1178.140380859375	-2183.26171875	577.4451904296876	1119.960815429688	-2372.388916015625	347.4362792968751	1091.343017578125	-2377.213134765625	655.3698730468751	868.7766723632815	-2398.3134765625	644.9019775390626	884.935974121094	-2456.332275390625	643.3505859375001	806.205505371094	-2454.15869140625	620.6539306640626	820.0668945312502	-2506.688720703125	593.1943969726564	425.2432556152345	-2328.037841796875	596.1387939453126	386.600799560547	-2376.336181640625	588.4393920898439	367.2500305175782	-2319.091796875	579.5119628906251	331.3921508789063	-2366.2568359375	528.0540771484376	258.3298034667969	-2206.061279296875	489.3685607910157	228.0226593017579	-2200.253662109375	552.0780639648439	218.8490142822266	-2190.890625	482.6579589843751	212.6941223144532	-2268.7841796875	579.0485839843751	198.4946746826172	-2246.109375	500.0334777832032	204.4689331054688	-2327.0380859375	500.9268798828126	173.2768249511719	-2346.076171875	552.4485473632814	182.0633697509766	-2360.715576171875	585.4095458984376	154.4525451660157	-2273.668701171875	491.7003479003907	122.0812377929688	-2380.66064453125	547.8427124023439	121.7683563232422	-2394.856201171875	599.9483642578126	108.32861328125	-2337.698486328125	537.7526855468751	93.67232513427736	-2442.8095703125	283.1067199707032	844.302185058594	-2189.315673828125	295.6854248046876	810.9758911132815	-2238.770263671875	295.5683593750001	760.2525634765626	-2174.5556640625	322.7024230957032	730.7751464843751	-2220.6767578125	332.7723999023438	394.2173461914064	-1897.195678710938	324.6895141601563	355.0496520996094	-1933.658935546875	335.4736938476563	338.1624755859376	-1887.813232421875	341.9877929687501	299.6046447753907	-1928.265502929688	395.7637634277345	258.7183837890626	-1785.162841796875	377.0000000000001	228.9481506347657	-1752.9033203125	433.8023376464845	238.0547790527344	-1764.803466796875	451.0708618164064	74.26525115966798	-1907.399169921875	354.0992126464844	62.04026031494142	-1845.325805664063	
172	0.7125	519.4623413085939	1189.820190429688	-2192.03857421875	405.733123779297	1180.546997070313	-2198.001708984375	577.8677978515626	1123.4453125	-2386.945068359375	348.6556396484376	1093.504516601563	-2392.02734375	654.5247192382814	870.4262695312502	-2411.87451171875	644.1638183593751	886.3876953125002	-2469.978759765625	642.4188232421876	807.5622558593752	-2467.51123046875	619.8702392578126	821.3550415039065	-2520.1357421875	591.9208374023439	419.7728576660157	-2347.719482421875	595.6301269531251	382.7688293457032	-2397.302734375	587.2242431640626	361.5349731445313	-2340.90625	579.0716552734376	327.2395324707032	-2389.4033203125	526.1514892578126	247.8382110595704	-2232.47900390625	487.468231201172	217.289779663086	-2228.255859375	549.7874755859376	207.5034942626954	-2218.68408203125	481.4096069335939	204.6660308837891	-2297.362548828125	577.5573120117189	189.6924591064453	-2274.459228515625	499.2727355957032	198.7248840332032	-2355.758056640625	500.4193115234376	168.4264068603516	-2376.048583984375	551.9813232421876	177.7938232421875	-2389.82080078125	584.1192626953126	146.7547149658203	-2303.646728515625	491.5155029296876	118.6115341186524	-2412.79248046875	547.7598266601564	118.9016036987305	-2426.462646484375	599.3859252929689	103.3227005004883	-2369.339111328125	538.1958618164064	92.83482360839845	-2475.5986328125	283.1293029785157	847.5940551757815	-2201.771728515625	295.5206909179688	813.6798095703127	-2250.81103515625	295.6651916503907	763.6659545898439	-2185.961181640625	322.4888610839844	733.6027221679689	-2231.88916015625	331.7277221679688	399.5383300781251	-1905.772705078125	324.1602172851563	360.1676940917969	-1942.02392578125	334.4633178710938	343.4723815917969	-1896.035034179688	341.4533691406251	304.7790527343751	-1936.150390625	394.531951904297	266.6399841308594	-1793.610595703125	375.9482727050782	237.6768341064454	-1760.434814453125	432.6703491210939	246.6608581542969	-1772.84033203125	448.778289794922	78.07657623291017	-1911.172973632813	353.5920715332032	67.56954193115236	-1848.409545898438	
